<svg xmlns="http://www.w3.org/2000/svg" xmlns:xlink="http://www.w3.org/1999/xlink" contentStyleType="text/css" height="619px" preserveAspectRatio="none" style="width:382px;height:619px;background:#FFFFFF;" version="1.1" viewBox="0 0 382 619" width="382px" zoomAndPan="magnify"><defs/><g><line style="stroke:#181818;stroke-width:0.5;stroke-dasharray:5.0,5.0;" x1="31" x2="31" y1="36.4883" y2="584.0781"/><line style="stroke:#181818;stroke-width:0.5;stroke-dasharray:5.0,5.0;" x1="334.9277" x2="334.9277" y1="36.4883" y2="584.0781"/><rect fill="#E2E2F0" height="30.4883" rx="2.5" ry="2.5" style="stroke:#181818;stroke-width:0.5;" width="53.5049" x="5" y="5"/><text fill="#000000" font-family="sans-serif" font-size="14" lengthAdjust="spacing" textLength="39.5049" x="12" y="25.5352">Client</text><rect fill="#E2E2F0" height="30.4883" rx="2.5" ry="2.5" style="stroke:#181818;stroke-width:0.5;" width="53.5049" x="5" y="583.0781"/><text fill="#000000" font-family="sans-serif" font-size="14" lengthAdjust="spacing" textLength="39.5049" x="12" y="603.6133">Client</text><rect fill="#E2E2F0" height="30.4883" rx="2.5" ry="2.5" style="stroke:#181818;stroke-width:0.5;" width="81.7031" x="294.9277" y="5"/><text fill="#000000" font-family="sans-serif" font-size="14" lengthAdjust="spacing" textLength="67.7031" x="301.9277" y="25.5352">API Server</text><rect fill="#E2E2F0" height="30.4883" rx="2.5" ry="2.5" style="stroke:#181818;stroke-width:0.5;" width="81.7031" x="294.9277" y="583.0781"/><text fill="#000000" font-family="sans-serif" font-size="14" lengthAdjust="spacing" textLength="67.7031" x="301.9277" y="603.6133">API Server</text><line style="stroke:#181818;stroke-width:1;" x1="333.7793" x2="323.7793" y1="67.7988" y2="63.7988"/><line style="stroke:#181818;stroke-width:1;" x1="333.7793" x2="323.7793" y1="67.7988" y2="71.7988"/><line style="stroke:#181818;stroke-width:1;" x1="31.7524" x2="334.7793" y1="67.7988" y2="67.7988"/><text fill="#000000" font-family="sans-serif" font-size="13" lengthAdjust="spacing" textLength="81.9482" x="38.7524" y="63.0566">GET /v1/info</text><line style="stroke:#181818;stroke-width:1;" x1="32.7524" x2="42.7524" y1="97.1094" y2="93.1094"/><line style="stroke:#181818;stroke-width:1;" x1="32.7524" x2="42.7524" y1="97.1094" y2="101.1094"/><line style="stroke:#181818;stroke-width:1;stroke-dasharray:2.0,2.0;" x1="31.7524" x2="334.7793" y1="97.1094" y2="97.1094"/><text fill="#000000" font-family="sans-serif" font-size="13" lengthAdjust="spacing" textLength="84.7729" x="48.7524" y="92.3672">InfoResponse</text><line style="stroke:#181818;stroke-width:1;" x1="333.7793" x2="323.7793" y1="126.4199" y2="122.4199"/><line style="stroke:#181818;stroke-width:1;" x1="333.7793" x2="323.7793" y1="126.4199" y2="130.4199"/><line style="stroke:#181818;stroke-width:1;" x1="31.7524" x2="334.7793" y1="126.4199" y2="126.4199"/><text fill="#000000" font-family="sans-serif" font-size="13" lengthAdjust="spacing" textLength="103.2891" x="38.7524" y="121.6777">GET /v1/models</text><line style="stroke:#181818;stroke-width:1;" x1="32.7524" x2="42.7524" y1="155.7305" y2="151.7305"/><line style="stroke:#181818;stroke-width:1;" x1="32.7524" x2="42.7524" y1="155.7305" y2="159.7305"/><line style="stroke:#181818;stroke-width:1;stroke-dasharray:2.0,2.0;" x1="31.7524" x2="334.7793" y1="155.7305" y2="155.7305"/><text fill="#000000" font-family="sans-serif" font-size="13" lengthAdjust="spacing" textLength="105.187" x="48.7524" y="150.9883">ModelsResponse</text><line style="stroke:#181818;stroke-width:1;" x1="333.7793" x2="323.7793" y1="185.041" y2="181.041"/><line style="stroke:#181818;stroke-width:1;" x1="333.7793" x2="323.7793" y1="185.041" y2="189.041"/><line style="stroke:#181818;stroke-width:1;" x1="31.7524" x2="334.7793" y1="185.041" y2="185.041"/><text fill="#000000" font-family="sans-serif" font-size="13" lengthAdjust="spacing" textLength="201.3413" x="38.7524" y="180.2988">POST /v1/query (QueryRequest)</text><line style="stroke:#181818;stroke-width:1;" x1="32.7524" x2="42.7524" y1="214.3516" y2="210.3516"/><line style="stroke:#181818;stroke-width:1;" x1="32.7524" x2="42.7524" y1="214.3516" y2="218.3516"/><line style="stroke:#181818;stroke-width:1;stroke-dasharray:2.0,2.0;" x1="31.7524" x2="334.7793" y1="214.3516" y2="214.3516"/><text fill="#000000" font-family="sans-serif" font-size="13" lengthAdjust="spacing" textLength="97.7158" x="48.7524" y="209.6094">QueryResponse</text><line style="stroke:#181818;stroke-width:1;" x1="333.7793" x2="323.7793" y1="243.6621" y2="239.6621"/><line style="stroke:#181818;stroke-width:1;" x1="333.7793" x2="323.7793" y1="243.6621" y2="247.6621"/><line style="stroke:#181818;stroke-width:1;" x1="31.7524" x2="334.7793" y1="243.6621" y2="243.6621"/><text fill="#000000" font-family="sans-serif" font-size="13" lengthAdjust="spacing" textLength="271.1401" x="38.7524" y="238.9199">POST /v1/streaming_query (QueryRequest)</text><line style="stroke:#181818;stroke-width:1;" x1="32.7524" x2="42.7524" y1="272.9727" y2="268.9727"/><line style="stroke:#181818;stroke-width:1;" x1="32.7524" x2="42.7524" y1="272.9727" y2="276.9727"/><line style="stroke:#181818;stroke-width:1;stroke-dasharray:2.0,2.0;" x1="31.7524" x2="334.7793" y1="272.9727" y2="272.9727"/><text fill="#000000" font-family="sans-serif" font-size="13" lengthAdjust="spacing" textLength="161.3892" x="48.7524" y="268.2305">StreamingQueryResponse</text><line style="stroke:#181818;stroke-width:1;" x1="333.7793" x2="323.7793" y1="302.2832" y2="298.2832"/><line style="stroke:#181818;stroke-width:1;" x1="333.7793" x2="323.7793" y1="302.2832" y2="306.2832"/><line style="stroke:#181818;stroke-width:1;" x1="31.7524" x2="334.7793" y1="302.2832" y2="302.2832"/><text fill="#000000" font-family="sans-serif" font-size="13" lengthAdjust="spacing" textLength="244.5371" x="38.7524" y="297.541">POST /v1/feedback (FeedbackRequest)</text><line style="stroke:#181818;stroke-width:1;" x1="32.7524" x2="42.7524" y1="331.5938" y2="327.5938"/><line style="stroke:#181818;stroke-width:1;" x1="32.7524" x2="42.7524" y1="331.5938" y2="335.5938"/><line style="stroke:#181818;stroke-width:1;stroke-dasharray:2.0,2.0;" x1="31.7524" x2="334.7793" y1="331.5938" y2="331.5938"/><text fill="#000000" font-family="sans-serif" font-size="13" lengthAdjust="spacing" textLength="119.4502" x="48.7524" y="326.8516">FeedbackResponse</text><line style="stroke:#181818;stroke-width:1;" x1="333.7793" x2="323.7793" y1="360.9043" y2="356.9043"/><line style="stroke:#181818;stroke-width:1;" x1="333.7793" x2="323.7793" y1="360.9043" y2="364.9043"/><line style="stroke:#181818;stroke-width:1;" x1="31.7524" x2="334.7793" y1="360.9043" y2="360.9043"/><text fill="#000000" font-family="sans-serif" font-size="13" lengthAdjust="spacing" textLength="258.6606" x="38.7524" y="356.1621">GET /v1/conversations/{conversation_id}</text><line style="stroke:#181818;stroke-width:1;" x1="32.7524" x2="42.7524" y1="390.2148" y2="386.2148"/><line style="stroke:#181818;stroke-width:1;" x1="32.7524" x2="42.7524" y1="390.2148" y2="394.2148"/><line style="stroke:#181818;stroke-width:1;stroke-dasharray:2.0,2.0;" x1="31.7524" x2="334.7793" y1="390.2148" y2="390.2148"/><text fill="#000000" font-family="sans-serif" font-size="13" lengthAdjust="spacing" textLength="143.0127" x="48.7524" y="385.4727">ConversationResponse</text><line style="stroke:#181818;stroke-width:1;" x1="333.7793" x2="323.7793" y1="419.5254" y2="415.5254"/><line style="stroke:#181818;stroke-width:1;" x1="333.7793" x2="323.7793" y1="419.5254" y2="423.5254"/><line style="stroke:#181818;stroke-width:1;" x1="31.7524" x2="334.7793" y1="419.5254" y2="419.5254"/><text fill="#000000" font-family="sans-serif" font-size="13" lengthAdjust="spacing" textLength="280.0269" x="38.7524" y="414.7832">DELETE /v1/conversations/{conversation_id}</text><line style="stroke:#181818;stroke-width:1;" x1="32.7524" x2="42.7524" y1="448.8359" y2="444.8359"/><line style="stroke:#181818;stroke-width:1;" x1="32.7524" x2="42.7524" y1="448.8359" y2="452.8359"/><line style="stroke:#181818;stroke-width:1;stroke-dasharray:2.0,2.0;" x1="31.7524" x2="334.7793" y1="448.8359" y2="448.8359"/><text fill="#000000" font-family="sans-serif" font-size="13" lengthAdjust="spacing" textLength="183.0981" x="48.7524" y="444.0938">ConversationDeleteResponse</text><line style="stroke:#181818;stroke-width:1;" x1="333.7793" x2="323.7793" y1="478.1465" y2="474.1465"/><line style="stroke:#181818;stroke-width:1;" x1="333.7793" x2="323.7793" y1="478.1465" y2="482.1465"/><line style="stroke:#181818;stroke-width:1;" x1="31.7524" x2="334.7793" y1="478.1465" y2="478.1465"/><text fill="#000000" font-family="sans-serif" font-size="13" lengthAdjust="spacing" textLength="95.8369" x="38.7524" y="473.4043">GET /readiness</text><line style="stroke:#181818;stroke-width:1;" x1="32.7524" x2="42.7524" y1="507.457" y2="503.457"/><line style="stroke:#181818;stroke-width:1;" x1="32.7524" x2="42.7524" y1="507.457" y2="511.457"/><line style="stroke:#181818;stroke-width:1;stroke-dasharray:2.0,2.0;" x1="31.7524" x2="334.7793" y1="507.457" y2="507.457"/><text fill="#000000" font-family="sans-serif" font-size="13" lengthAdjust="spacing" textLength="123.3413" x="48.7524" y="502.7148">ReadinessResponse</text><line style="stroke:#181818;stroke-width:1;" x1="333.7793" x2="323.7793" y1="536.7676" y2="532.7676"/><line style="stroke:#181818;stroke-width:1;" x1="333.7793" x2="323.7793" y1="536.7676" y2="540.7676"/><line style="stroke:#181818;stroke-width:1;" x1="31.7524" x2="334.7793" y1="536.7676" y2="536.7676"/><text fill="#000000" font-family="sans-serif" font-size="13" lengthAdjust="spacing" textLength="85.6426" x="38.7524" y="532.0254">GET /liveness</text><line style="stroke:#181818;stroke-width:1;" x1="32.7524" x2="42.7524" y1="566.0781" y2="562.0781"/><line style="stroke:#181818;stroke-width:1;" x1="32.7524" x2="42.7524" y1="566.0781" y2="570.0781"/><line style="stroke:#181818;stroke-width:1;stroke-dasharray:2.0,2.0;" x1="31.7524" x2="334.7793" y1="566.0781" y2="566.0781"/><text fill="#000000" font-family="sans-serif" font-size="13" lengthAdjust="spacing" textLength="113.4199" x="48.7524" y="561.3359">LivenessResponse</text><!--SRC=[hP912u8m5CVlVehXgGuXNJi4eHQ2KQbtMVgCHpfjMq94txsLLhkO1fsslVVRxyyUgoYNc615cIHsZi2aKMabSx7rI0Yy1cuQHWDCvdEzF2ChDo9MFRMGPQMXjoOARUxCYAUQ0OYgP09wJKMPGYuwNUjdkzUstOIDxdG6VY6ZtMC9G9s477VAMsgeMqWEj41sY7zA2L_NVepB0D8zJOvaj6ntlL4VSE3qavAfWg0I5MvTzMECwQqpoDR0tZ37zTt8_LkU0pb86FP4DVaK6OZk3nQyY67276luwlDRuAsx0m00]--></g></svg>